<?xml version="1.0" encoding="UTF-8" standalone="no"?>
<!DOCTYPE svg PUBLIC "-//W3C//DTD SVG 1.1//EN" "http://www.w3.org/Graphics/SVG/1.1/DTD/svg11.dtd">
<svg width="100%" height="100%" viewBox="0 0 1080 1080" version="1.1" xmlns="http://www.w3.org/2000/svg" xmlns:xlink="http://www.w3.org/1999/xlink" xml:space="preserve" xmlns:serif="http://www.serif.com/" style="fill-rule:evenodd;clip-rule:evenodd;stroke-linejoin:round;stroke-miterlimit:2;">
    <g transform="matrix(1,0,0,1,-1144.8,0)">
        <g transform="matrix(1,0,0,1,1144.8,0)">
            <rect id="Page-1" serif:id="Page 1" x="0" y="0" width="1080" height="1080" style="fill:none;"/>
            <g id="Page-11" serif:id="Page 1">
                <g id="Calque-1" serif:id="Calque 1">
                </g>
                <g id="Calque-2" serif:id="Calque 2">
                    <g>
                        <g transform="matrix(0,-1,-1,0,541.424,50.6949)">
                            <path d="M-36.875,-36.875C-57.24,-36.875 -73.75,-20.366 -73.75,0C-73.75,20.365 -57.24,36.875 -36.875,36.875C-16.51,36.875 0,20.365 0,0C0,-20.366 -16.51,-36.875 -36.875,-36.875" style="fill:rgb(249,250,252);fill-rule:nonzero;"/>
                        </g>
                        <g transform="matrix(0,-1,-1,0,541.424,955.556)">
                            <path d="M-36.875,-36.875C-57.24,-36.875 -73.75,-20.366 -73.75,0C-73.75,20.365 -57.24,36.875 -36.875,36.875C-16.51,36.875 0,20.365 0,0C0,-20.366 -16.51,-36.875 -36.875,-36.875" style="fill:rgb(249,250,252);fill-rule:nonzero;"/>
                        </g>
                        <g transform="matrix(-0.759498,-0.65051,-0.65051,0.759498,187.565,290.109)">
                            <path d="M-133.287,-242.833C-133.287,-242.833 -36.454,-97.041 -89.779,49.278L-133.287,12.013C-133.287,12.013 -92.177,-69.342 -167.729,-202.622L-133.287,-242.833Z" style="fill:rgb(249,250,252);fill-rule:nonzero;"/>
                        </g>
                        <g transform="matrix(1,0,0,1,564.804,385.938)">
                            <path d="M0,-202.235C0,-202.235 42.53,-199.631 45.134,-193.555L45.134,-45.134L111.099,-45.134L111.099,0L0,0L0,-202.235Z" style="fill:rgb(249,250,252);fill-rule:nonzero;"/>
                        </g>
                        <g transform="matrix(1,0,0,1,473.669,377.257)">
                            <path d="M0,-132.797C0,-132.797 22.567,-141.477 46.87,-140.609L46.87,8.68L-67.701,8.68L-67.701,-38.189L4.34,-37.321L0,-132.797Z" style="fill:rgb(249,250,252);fill-rule:nonzero;"/>
                        </g>
                        <g transform="matrix(0.711901,-0.70228,-0.70228,-0.711901,753.787,360.036)">
                            <path d="M28.886,32.658L73.998,32.658C73.998,32.658 80.999,-49.231 57.36,-92.968L18.741,-54.871C18.741,-54.871 34.648,-2.287 28.886,32.658" style="fill:rgb(249,250,252);fill-rule:nonzero;"/>
                        </g>
                        <g transform="matrix(1,0,0,1,733.189,464.922)">
                            <path d="M0,-46.87L140.609,-46.87C140.609,-46.87 153.629,-13.888 153.629,0L36.454,0C36.454,0 19.963,-26.039 0,-46.87" style="fill:rgb(249,250,252);fill-rule:nonzero;"/>
                        </g>
                        <g transform="matrix(-1,0,0,1,268.83,461.45)">
                            <path d="M-81.588,-43.398L0,-43.398L0,0L-45.134,0C-45.134,0 -67.701,-32.983 -81.588,-43.398" style="fill:rgb(249,250,252);fill-rule:nonzero;"/>
                        </g>
                        <g transform="matrix(1,0,0,1,0,16.926)">
                            <rect x="105.085" y="508.102" width="289.817" height="46.87" style="fill:rgb(249,250,252);"/>
                        </g>
                        <g transform="matrix(1,0,0,1,541.424,489.787)">
                            <path d="M0,119.522C-33.484,119.522 -60.628,92.378 -60.628,58.894C-60.628,25.41 -33.484,-1.734 0,-1.734C33.484,-1.734 60.628,25.41 60.628,58.894C60.628,92.378 33.484,119.522 0,119.522M104.535,35.024C104.535,35.024 86.85,-47.866 0,-48.3C0,-48.3 -101.172,-46.998 -105.945,64.1C-105.945,64.1 -104.101,160.444 0,166.086C0,166.086 79.364,167.822 104.101,82.111L433.492,82.111L433.492,35.024L104.535,35.024Z" style="fill:rgb(249,250,252);fill-rule:nonzero;"/>
                        </g>
                        <g transform="matrix(-1,0,0,1,233.678,680.176)">
                            <path d="M-81.588,-46.436L39.058,-46.436C39.058,-46.436 31.247,-13.454 21.699,0L-120.646,0C-120.646,0 -94.607,-24.303 -81.588,-46.436" style="fill:rgb(249,250,252);fill-rule:nonzero;"/>
                        </g>
                        <g transform="matrix(-0.421784,0.906696,0.906696,0.421784,848.558,630.243)">
                            <path d="M36.618,-71.198C36.618,-71.198 56.735,-70.456 96.199,-85.841L36.618,42.239L-14.177,37.995L36.618,-71.198Z" style="fill:rgb(249,250,252);fill-rule:nonzero;"/>
                        </g>
                        <g transform="matrix(-0.992176,-0.124849,-0.124849,0.992176,247.071,777.323)">
                            <path d="M-27.465,-67.252C-27.465,-67.252 -47.671,-42.238 -54.51,-40.037L-27.465,-1.204C-27.465,-1.204 7.492,-28.737 27.218,-60.371L-27.465,-67.252Z" style="fill:rgb(249,250,252);fill-rule:nonzero;"/>
                        </g>
                        <g transform="matrix(1,0,0,1,405.968,899.335)">
                            <path d="M0,-183.573L113.269,-183.573L113.269,0C113.269,0 3.472,-2.603 -95.042,-84.626L-60.323,-119.778C-60.323,-119.778 -20.831,-76.814 68.569,-54.681L69.003,-149.289L0.434,-150.157L0,-183.573Z" style="fill:rgb(249,250,252);fill-rule:nonzero;"/>
                        </g>
                        <g transform="matrix(0.44721,0.894429,0.894429,-0.44721,591.063,696.316)">
                            <path d="M45.243,-27.962C45.243,-27.962 43.059,-9.766 23.554,29.826L45.243,73.204L85.708,52.971L45.243,-27.962Z" style="fill:rgb(249,250,252);fill-rule:nonzero;"/>
                        </g>
                        <g transform="matrix(0.30418,0.952614,0.952614,-0.30418,674.614,744.111)">
                            <path d="M78.293,-67.153C78.293,-67.153 78.446,26.418 36.06,89.495L78.293,111.544C78.293,111.544 131.442,27.605 123.872,-81.707L78.293,-67.153Z" style="fill:rgb(249,250,252);fill-rule:nonzero;"/>
                        </g>
                    </g>
                </g>
                <g id="Calque-3" serif:id="Calque 3">
                </g>
            </g>
        </g>
    </g>
</svg>
